<?xml version="1.0" encoding="iso-8859-1"?>
<!-- Generator: Adobe Illustrator 17.1.0, SVG Export Plug-In . SVG Version: 6.00 Build 0)  -->
<!DOCTYPE svg PUBLIC "-//W3C//DTD SVG 1.1//EN" "http://www.w3.org/Graphics/SVG/1.1/DTD/svg11.dtd">
<svg version="1.1" id="Capa_1" xmlns="http://www.w3.org/2000/svg" xmlns:xlink="http://www.w3.org/1999/xlink" x="0px" y="0px"
	 viewBox="0 0 417.092 417.092" style="enable-background:new 0 0 417.092 417.092;" xml:space="preserve">
<path d="M411.979,271.718L145.375,5.115C142.077,1.817,137.683,0,133,0c-4.682,0-9.077,1.816-12.374,5.113L5.114,120.625
	C1.816,123.923,0,128.318,0,133c0,4.682,1.816,9.076,5.114,12.374l266.604,266.604c3.297,3.298,7.692,5.114,12.375,5.114
	c4.682,0,9.077-1.816,12.374-5.113l115.511-115.512c3.298-3.297,5.114-7.692,5.114-12.374
	C417.092,279.41,415.276,275.015,411.979,271.718z M285.86,401.372c-0.626,0.627-1.376,0.72-1.767,0.72
	c-0.392,0-1.142-0.093-1.768-0.721L15.72,134.767C15.094,134.141,15,133.391,15,133c0-0.392,0.094-1.142,0.72-1.768l52.246-52.246
	l26.665,26.665c-1.678,2.986-2.826,6.295-3.288,9.803c-0.555,4.215-0.694,14.676,8.846,24.554
	c-10.619,3.016-15.919,9.394-18.37,13.64c-4.925,8.53-4.848,19.26,0.2,28.001c4.97,8.605,14.017,13.742,24.205,13.742
	c0.001,0,0.003,0,0.005,0c2.436-0.001,5.304-0.294,8.546-1.118c-2.182,8.657-0.706,15.36,1.067,19.641
	c4.276,10.323,14.447,16.993,25.91,16.992c8.597-0.001,16.543-3.933,21.802-10.786c2.098-2.734,4.15-6.41,5.529-11.261
	c8.106,7.849,16.486,9.12,21.046,9.12c4.742,0,9.297-1.285,13.3-3.529l134.677,134.677L285.86,401.372z M195.735,155.78
	c-2.666,0-5.535-0.245-8.574-0.72c0.003-0.171,0.013-0.341,0.013-0.513c0-5.996-1.607-11.745-4.616-16.755
	c7.345-5.9,14.386-9.089,20.306-9.089c8.472,0,13.042,6.723,13.042,13.048C215.907,148.531,210.607,155.78,195.735,155.78z
	 M183.062,170.413c15.689,6.067,20.685,14.653,19.814,21.266c-0.82,6.23-6.539,11.3-12.748,11.3c-7.725,0-14.815-7.301-19.709-19.92
	c2.606-1.456,5.03-3.273,7.198-5.442C179.787,175.447,181.606,173.021,183.062,170.413z M171.311,126.54
	c-5.013-3.013-10.765-4.623-16.765-4.623c-0.175,0-0.349,0.01-0.524,0.013c-2.164-13.764,1.03-20.716,3.418-23.828
	c3.282-4.276,7.612-4.915,9.901-4.915c5.292,0,10.135,3.107,12.051,7.734C182.17,107.627,179.229,116.722,171.311,126.54z
	 M154.546,136.917c4.708,0,9.135,1.834,12.465,5.163c3.329,3.33,5.163,7.757,5.163,12.466c0,4.708-1.833,9.135-5.163,12.465
	c-3.33,3.329-7.756,5.163-12.465,5.163s-9.135-1.834-12.465-5.164c-3.33-3.329-5.163-7.756-5.163-12.464
	c0-4.709,1.833-9.136,5.163-12.466C145.411,138.751,149.837,136.917,154.546,136.917z M151.652,210.989
	c-3.282,4.277-7.613,4.917-9.902,4.917c-5.292,0-10.134-3.107-12.05-7.733c-2.778-6.706,0.163-15.802,8.081-25.621
	c5.013,3.013,10.765,4.623,16.765,4.623c0.17,0,0.339-0.01,0.509-0.012C156.688,197.615,155.544,205.916,151.652,210.989z
	 M131.475,131.474c-2.17,2.17-3.989,4.596-5.445,7.204c-15.689-6.067-20.685-14.652-19.815-21.266
	c0.82-6.23,6.539-11.299,12.748-11.299c7.725,0,14.815,7.3,19.71,19.919C136.067,127.488,133.643,129.306,131.475,131.474z
	 M126.534,171.301c-7.345,5.9-14.386,9.089-20.308,9.09c-0.001,0-0.001,0-0.002,0c-6.62,0-9.868-3.911-11.215-6.243
	c-2.34-4.053-2.418-9.156-0.199-13.001c2.917-5.053,9.503-7.835,18.547-7.835c2.666,0,5.535,0.246,8.573,0.72
	c-0.003,0.172-0.013,0.342-0.013,0.514C121.918,160.542,123.525,166.291,126.534,171.301z M401.372,285.86l-52.659,52.659
	L214.157,203.964c1.843-3.12,3.102-6.613,3.591-10.327c0.554-4.212,0.693-14.668-8.835-24.542
	c15.09-4.24,21.994-15.835,21.993-27.346c0-13.787-10.489-28.048-28.042-28.048c-2.437,0-5.304,0.293-8.547,1.117
	c2.183-8.657,0.707-15.358-1.066-19.639c-4.276-10.323-14.446-16.993-25.91-16.993c-8.596,0-16.542,3.931-21.801,10.784
	c-2.099,2.734-4.151,6.411-5.53,11.262c-8.106-7.848-16.487-9.119-21.046-9.119c-4.951,0-9.694,1.404-13.822,3.834L78.573,68.38
	l52.66-52.66C131.859,15.094,132.609,15,133,15c0.392,0,1.141,0.094,1.768,0.721l266.604,266.604c0.627,0.626,0.72,1.376,0.72,1.768
	C402.092,284.484,402,285.234,401.372,285.86z"/>
<g>
</g>
<g>
</g>
<g>
</g>
<g>
</g>
<g>
</g>
<g>
</g>
<g>
</g>
<g>
</g>
<g>
</g>
<g>
</g>
<g>
</g>
<g>
</g>
<g>
</g>
<g>
</g>
<g>
</g>
</svg>
