<?xml version="1.0" standalone="no"?>
<!DOCTYPE svg PUBLIC "-//W3C//DTD SVG 20010904//EN"
 "http://www.w3.org/TR/2001/REC-SVG-20010904/DTD/svg10.dtd">
<svg version="1.0" xmlns="http://www.w3.org/2000/svg"
 width="1280.000000pt" height="995.000000pt" viewBox="0 0 1280.000000 995.000000"
 preserveAspectRatio="xMidYMid meet">
<metadata>
Created by potrace 1.15, written by Peter Selinger 2001-2017
</metadata>
<g transform="translate(0.000000,995.000000) scale(0.100000,-0.100000)"
fill="#000000" stroke="none">
<path d="M4813 8467 c6 -16 -47 -77 -66 -77 -5 0 -7 -7 -3 -15 3 -9 0 -15 -9
-15 -18 0 -95 -73 -95 -89 0 -6 -4 -11 -8 -11 -4 0 -15 -12 -24 -27 -9 -16
-33 -45 -54 -65 -20 -21 -34 -41 -31 -45 4 -3 -2 -12 -13 -20 -19 -14 -101
-132 -129 -185 -8 -16 -18 -28 -23 -28 -4 0 -8 -8 -8 -18 0 -10 -4 -22 -9 -27
-4 -6 -16 -38 -27 -72 -10 -35 -21 -63 -26 -63 -4 0 -8 -9 -8 -19 0 -11 -5
-23 -10 -26 -6 -4 -8 -11 -5 -16 4 -5 2 -9 -3 -9 -5 0 -22 -30 -38 -67 -15
-38 -34 -75 -41 -84 -7 -8 -13 -20 -13 -26 0 -6 -7 -24 -15 -39 -8 -16 -15
-39 -15 -51 0 -13 -9 -32 -20 -43 -11 -11 -20 -33 -20 -49 0 -16 -7 -42 -15
-57 -17 -33 -20 -80 -5 -89 6 -4 5 -11 -3 -20 -20 -19 -31 -107 -15 -117 10
-6 10 -10 1 -16 -14 -9 -22 -150 -10 -168 4 -7 -5 -11 -23 -10 l-30 1 -1 75
c-1 41 0 87 1 103 1 15 -3 27 -9 27 -6 0 -10 17 -9 38 2 55 -5 132 -12 132 -4
0 -6 20 -5 45 0 25 -3 45 -8 45 -4 0 -6 3 -3 8 2 4 0 27 -5 52 -6 25 -12 61
-15 80 -3 19 -9 39 -14 45 -6 7 -7 14 -4 17 8 8 -24 68 -36 68 -5 0 -7 7 -4
15 4 8 1 21 -5 28 -6 8 -12 23 -14 34 -2 12 -8 27 -14 35 -6 7 -11 15 -10 18
1 7 -70 149 -91 181 -9 15 -30 48 -47 73 -16 25 -35 45 -42 46 -6 0 -16 14
-22 30 -5 17 -17 30 -25 30 -9 0 -16 8 -16 19 0 19 -80 104 -188 200 -34 30
-60 58 -59 63 1 6 -5 13 -13 17 -8 5 -26 14 -39 20 -34 18 -181 30 -238 19
-91 -17 -103 -20 -103 -29 0 -5 -8 -9 -19 -9 -10 0 -24 -7 -31 -15 -7 -8 -18
-15 -25 -15 -15 0 -45 -43 -45 -65 0 -9 9 -33 20 -55 22 -44 33 -147 16 -153
-8 -3 -7 -9 1 -19 7 -8 15 -35 18 -59 3 -24 10 -46 15 -47 6 -2 7 -8 4 -13 -3
-6 -1 -16 6 -24 8 -9 8 -15 0 -20 -6 -4 -7 -12 -2 -18 4 -7 9 -25 10 -41 1
-16 7 -35 12 -41 6 -7 10 -17 8 -21 -4 -16 13 -54 24 -54 5 0 8 -7 5 -14 -3
-8 0 -28 8 -44 8 -15 16 -37 18 -48 2 -10 8 -29 15 -41 7 -12 13 -30 15 -40 2
-10 7 -26 11 -35 4 -9 9 -23 10 -32 1 -8 10 -24 20 -35 10 -11 16 -27 13 -35
-4 -9 -2 -18 3 -21 6 -4 10 -15 10 -25 0 -10 9 -25 20 -33 13 -9 18 -20 14
-31 -6 -16 39 -120 57 -132 4 -2 6 -11 2 -19 -3 -8 0 -15 6 -15 6 0 11 -9 11
-21 0 -11 9 -33 19 -48 11 -15 22 -44 26 -64 4 -21 16 -42 26 -47 10 -6 16
-17 13 -25 -6 -14 9 -56 41 -118 8 -15 10 -25 4 -22 -11 7 -103 -11 -132 -26
-9 -5 -47 -12 -85 -15 -60 -5 -69 -4 -86 15 -11 12 -25 21 -33 21 -7 0 -13 6
-13 13 0 7 -37 47 -82 87 -45 41 -93 87 -106 103 -14 15 -31 27 -38 27 -6 0
-19 11 -28 24 -9 14 -39 49 -68 78 -29 29 -66 71 -82 93 -17 22 -36 44 -43 48
-7 4 -20 23 -29 42 -9 19 -20 35 -25 35 -5 0 -9 6 -9 14 0 8 -10 22 -22 30
-12 9 -19 16 -14 16 5 0 -3 15 -18 34 -14 19 -26 40 -26 46 0 6 -13 30 -28 53
-16 23 -32 54 -36 70 -3 15 -13 27 -20 27 -9 0 -12 7 -9 19 3 11 -2 32 -10 48
-37 72 -51 122 -36 139 14 17 -13 35 -57 39 -20 2 -38 6 -41 9 -3 3 -14 1 -24
-5 -11 -5 -43 -12 -72 -14 -28 -2 -54 -4 -57 -5 -3 -1 -13 -2 -22 -1 -20 2
-27 -19 -28 -89 -1 -90 0 -100 10 -100 5 0 9 -10 8 -22 -2 -29 32 -138 43
-138 5 0 9 -9 9 -19 0 -11 7 -27 16 -35 8 -9 13 -16 10 -16 -10 0 41 -95 58
-109 9 -7 14 -17 11 -21 -3 -5 4 -15 15 -23 12 -8 20 -21 18 -28 -2 -8 3 -13
10 -11 6 1 12 -5 12 -13 0 -9 9 -25 20 -37 11 -12 20 -28 20 -35 0 -17 37 -36
53 -27 9 6 9 5 0 -7 -10 -12 -8 -22 12 -51 14 -20 34 -39 45 -43 11 -3 20 -11
20 -16 0 -8 19 -32 76 -96 12 -12 26 -23 33 -23 6 0 11 -6 11 -13 0 -16 42
-57 58 -57 7 0 12 -7 12 -15 0 -8 7 -15 15 -15 8 0 15 -6 15 -13 0 -7 27 -39
60 -71 62 -59 67 -76 24 -76 -13 0 -24 -5 -24 -11 0 -6 -9 -8 -20 -4 -11 3
-20 2 -20 -3 0 -5 -32 -19 -72 -32 -39 -12 -88 -30 -107 -38 -20 -9 -40 -17
-46 -18 -29 -6 -65 -25 -65 -33 0 -5 -17 -15 -37 -21 -21 -7 -45 -18 -53 -25
-8 -8 -28 -17 -43 -21 -16 -3 -31 -13 -34 -20 -3 -8 -11 -14 -18 -14 -23 0
-74 -31 -99 -60 -14 -17 -31 -30 -40 -30 -8 0 -16 -4 -18 -8 -1 -4 -20 -18
-40 -31 -34 -20 -40 -27 -37 -47 0 -4 -12 -14 -28 -24 -15 -9 -34 -33 -42 -53
-8 -21 -18 -37 -22 -37 -6 0 -12 -15 -25 -60 -3 -8 -6 -41 -8 -73 -2 -32 -6
-61 -9 -64 -3 -3 -1 -16 4 -30 6 -17 6 -30 -1 -38 -5 -6 -7 -15 -3 -18 3 -4 6
-167 6 -362 0 -196 3 -370 6 -388 4 -20 2 -42 -7 -59 -20 -40 -12 -82 15 -86
14 -2 25 -13 29 -27 3 -14 16 -27 27 -31 12 -4 31 -17 43 -29 11 -12 25 -24
31 -26 8 -3 8 -21 2 -58 -4 -29 -7 -70 -5 -90 l3 -36 -71 1 c-87 2 -158 12
-170 24 -5 5 -18 5 -30 1 -12 -5 -43 -3 -74 5 -30 8 -75 12 -100 10 -26 -2
-51 0 -57 4 -5 5 -86 11 -180 14 -188 7 -245 13 -245 27 0 19 -113 -1 -136
-24 -4 -4 -14 -7 -23 -7 -9 0 -29 -11 -46 -24 l-30 -24 19 -36 c16 -29 28 -38
75 -52 31 -9 66 -18 79 -20 13 -1 28 -7 35 -12 7 -5 32 -13 57 -16 25 -4 86
-13 135 -21 50 -8 124 -13 165 -11 41 1 82 -1 90 -5 8 -4 40 -9 70 -12 30 -4
80 -11 110 -18 30 -6 71 -13 90 -15 19 -2 61 -7 92 -13 32 -5 73 -7 91 -4 20
3 37 1 41 -6 12 -18 15 -50 7 -56 -5 -2 -5 -24 -1 -47 5 -24 6 -47 3 -52 -4
-5 -7 -48 -7 -95 -1 -66 2 -89 14 -98 13 -11 13 -12 -1 -13 -15 0 -17 -21 -15
-204 0 -112 4 -208 8 -212 4 -4 4 -12 -2 -19 -6 -7 -4 -21 6 -39 10 -21 12
-38 6 -60 -6 -21 -4 -49 6 -86 8 -30 15 -62 17 -70 5 -32 18 -50 36 -50 10 0
19 -4 19 -10 0 -5 4 -10 9 -10 5 0 23 -13 41 -30 18 -16 37 -30 42 -30 6 0 32
-16 59 -36 27 -20 49 -33 49 -29 0 4 6 2 14 -4 7 -6 20 -9 28 -6 9 4 20 -4 28
-20 7 -14 19 -25 26 -25 8 0 28 -9 46 -19 17 -11 35 -18 39 -15 4 2 10 0 14
-6 3 -5 14 -10 24 -10 9 0 31 -10 49 -23 17 -13 50 -29 74 -36 46 -14 83 -28
110 -42 10 -5 27 -9 37 -9 11 0 23 -4 26 -10 3 -5 16 -10 27 -10 12 0 30 -8
40 -17 15 -13 21 -14 27 -5 6 10 11 9 21 -3 7 -9 19 -14 26 -11 7 3 16 1 19
-4 9 -14 142 -53 155 -45 5 3 17 -1 26 -9 9 -9 19 -14 24 -11 5 3 11 1 15 -5
3 -5 13 -10 21 -10 8 0 12 5 9 10 -9 14 7 12 30 -3 20 -14 107 -39 122 -35 5
0 16 -2 26 -7 10 -4 23 -2 32 5 9 7 15 8 15 2 0 -5 17 -12 38 -15 20 -2 69
-11 107 -20 114 -25 313 -44 435 -40 108 3 106 3 160 1 70 -2 130 4 130 14 0
5 13 7 29 3 15 -3 49 -1 75 6 65 16 67 5 4 -25 -29 -14 -51 -29 -48 -33 3 -5
-5 -9 -17 -11 -13 -2 -23 -7 -23 -12 0 -5 -29 -23 -65 -40 -36 -18 -78 -44
-93 -59 -15 -15 -40 -31 -55 -35 -16 -4 -36 -19 -45 -35 -9 -16 -29 -37 -44
-47 -18 -13 -27 -26 -25 -40 4 -28 79 -100 114 -109 15 -3 30 -10 33 -13 14
-19 168 -82 203 -82 12 0 31 -7 41 -15 10 -8 23 -12 28 -9 5 3 15 0 23 -6 8
-7 21 -10 29 -7 8 3 24 -3 37 -14 12 -10 31 -19 42 -19 10 0 33 -6 50 -14 18
-8 68 -27 112 -41 44 -15 95 -33 113 -42 19 -8 36 -12 39 -9 3 3 15 0 27 -7
11 -6 26 -12 31 -13 6 0 24 -7 40 -13 17 -7 35 -14 40 -15 6 -2 17 -6 25 -9 8
-4 56 -20 105 -37 50 -17 110 -40 133 -51 24 -11 51 -19 60 -18 10 1 34 -5 54
-15 21 -9 47 -16 58 -16 11 0 28 -4 38 -9 44 -23 132 -52 141 -46 6 3 11 1 11
-4 0 -6 8 -11 19 -11 10 0 34 -6 52 -14 19 -7 40 -11 47 -9 7 3 21 -2 30 -10
9 -8 53 -22 97 -32 44 -10 86 -23 94 -29 7 -6 19 -11 25 -11 6 -1 18 -4 26 -7
38 -14 88 -27 125 -34 22 -3 46 -11 53 -17 6 -5 26 -7 42 -3 17 3 30 2 30 -3
0 -10 200 -84 208 -77 2 3 14 -1 26 -9 11 -8 30 -15 41 -15 20 0 91 -23 123
-39 9 -5 40 -14 69 -21 55 -12 49 -14 168 53 45 26 208 141 290 205 6 4 28 21
50 37 22 16 55 44 72 62 18 18 36 33 40 33 5 0 34 23 66 50 32 28 62 50 67 50
4 0 29 20 55 45 25 25 50 43 54 40 5 -2 19 9 31 25 13 17 29 30 36 30 8 0 14
5 14 10 0 6 6 10 14 10 8 0 18 9 21 20 3 11 12 20 19 20 7 0 18 11 24 25 7 14
23 30 36 35 14 5 32 21 42 35 9 14 21 25 28 25 6 0 34 18 61 40 28 22 54 40
59 40 5 0 27 18 48 40 22 22 44 40 49 40 5 0 35 22 66 50 32 27 66 57 76 65 9
8 21 15 25 15 13 0 108 93 115 113 4 12 13 16 24 13 12 -4 35 9 66 37 26 23
78 67 114 97 37 30 84 72 106 93 22 20 42 37 45 37 3 0 20 11 38 25 18 14 37
25 43 25 5 0 12 9 16 20 3 10 24 27 46 36 21 10 39 21 39 26 0 4 6 8 14 8 7 0
23 14 36 30 13 17 27 30 33 30 10 0 69 46 120 94 15 14 37 26 48 26 10 0 19 6
19 14 0 7 7 19 15 26 8 7 15 18 15 26 0 16 -56 75 -68 72 -4 -2 -24 4 -43 14
-57 27 -117 51 -136 53 -10 1 -31 7 -48 14 -16 7 -43 15 -60 18 -16 4 -33 11
-36 16 -4 5 -25 10 -47 11 -22 0 -40 5 -39 11 1 5 -10 11 -25 13 -16 2 -28 7
-28 11 0 5 -12 9 -26 9 -15 0 -29 4 -33 9 -8 13 -78 36 -89 29 -5 -3 -20 2
-33 12 -13 9 -28 17 -34 18 -15 4 -158 54 -180 64 -23 10 -102 33 -125 36 -8
0 -40 8 -70 17 -78 23 -113 31 -128 28 -8 -1 -21 4 -30 12 -15 13 -36 18 -117
32 -11 2 -31 7 -45 12 -14 5 -36 8 -50 7 -14 -1 -32 2 -40 7 -12 6 -11 8 5 8
49 1 85 9 109 24 22 15 28 15 53 2 15 -8 35 -15 44 -15 8 0 20 -5 26 -11 5 -5
23 -12 39 -14 16 -2 29 -4 29 -5 0 -1 11 -3 25 -4 14 -2 36 -8 48 -15 25 -14
57 -7 47 9 -3 5 3 10 14 10 13 0 23 8 27 24 5 22 7 23 57 11 29 -7 70 -12 91
-11 l40 1 1 48 c2 33 -2 50 -11 54 -8 3 -14 18 -14 34 0 16 -4 29 -10 29 -5 0
-10 7 -10 15 0 15 14 18 85 15 22 0 48 5 58 13 16 11 17 18 8 53 -6 23 -20 49
-31 59 -11 10 -20 24 -20 32 0 7 -4 13 -10 13 -25 0 -6 18 31 30 23 8 46 22
52 32 9 14 20 16 49 11 54 -8 98 12 98 46 0 14 -5 33 -10 41 -7 11 -4 16 11
20 11 3 20 9 19 15 -1 5 8 13 20 17 17 6 19 11 11 27 -6 10 -8 21 -4 24 3 4
-9 23 -26 43 l-32 36 23 16 c12 9 32 27 44 41 11 13 29 25 40 26 28 2 67 31
59 44 -3 6 -1 11 4 11 17 0 13 19 -9 37 -11 10 -20 23 -20 29 0 6 -13 17 -29
24 -35 14 -49 40 -23 40 33 0 119 50 130 75 11 23 10 25 -13 25 -17 0 -25 6
-27 22 -3 24 -65 61 -104 61 -14 0 -24 5 -24 13 0 8 -9 14 -20 14 -22 0 -27
19 -9 37 15 15 20 98 9 146 -7 33 -5 39 20 60 34 29 31 69 -6 105 -13 13 -24
26 -24 30 0 4 -11 14 -25 23 l-26 15 29 40 c16 21 31 53 34 69 6 27 3 32 -34
49 -31 14 -53 17 -98 13 -48 -5 -59 -4 -64 10 -4 9 -2 21 4 27 5 5 10 26 10
46 0 27 -8 42 -35 67 -35 32 -44 56 -25 68 30 18 -9 127 -51 140 -21 7 -120
-36 -167 -71 -39 -30 -68 -27 -107 12 -25 25 -32 48 -16 58 15 10 -10 109 -36
141 -40 48 -50 50 -91 18 -58 -44 -112 -97 -112 -110 0 -6 -4 -14 -9 -17 -14
-9 -41 4 -41 20 0 8 -4 14 -9 14 -5 0 -21 24 -36 53 -58 110 -104 123 -180 48
l-45 -44 -22 24 c-18 18 -33 24 -68 24 -40 0 -45 -3 -48 -25 -2 -14 -11 -33
-19 -42 -8 -9 -12 -21 -9 -26 3 -5 -5 -19 -18 -31 l-22 -21 -21 22 c-12 13
-24 35 -28 49 -4 15 -23 38 -43 53 -37 26 -55 26 -45 1 3 -9 -1 -15 -10 -15
-11 0 -22 -19 -33 -55 -10 -30 -21 -55 -26 -55 -4 0 -8 -9 -8 -19 0 -11 -5
-23 -11 -26 -6 -4 -8 -13 -5 -21 4 -10 -3 -14 -22 -15 -32 0 -95 -8 -98 -12
-8 -8 -12 -77 -5 -82 6 -3 4 -17 -4 -33 -13 -23 -21 -27 -66 -29 -28 -1 -56
-6 -61 -11 -6 -6 -16 -8 -22 -6 -6 2 -19 -11 -28 -31 -14 -32 -14 -40 4 -107
26 -96 37 -157 29 -160 -8 -4 -45 -80 -46 -93 0 -5 -9 -18 -20 -28 -16 -15
-17 -19 -6 -24 11 -4 9 -10 -8 -23 -21 -15 -23 -26 -27 -139 -4 -130 -6 -141
-30 -141 -11 0 -13 6 -9 20 3 11 2 20 -3 20 -5 0 -8 21 -6 48 1 32 -4 58 -17
80 -11 19 -16 38 -13 44 4 6 1 14 -5 18 -7 4 -13 13 -15 21 -7 48 -60 68 -62
24 0 -11 -3 -27 -6 -35 -3 -8 -14 -42 -23 -75 -10 -33 -24 -73 -30 -90 -7 -16
-20 -52 -30 -78 -10 -26 -21 -50 -26 -52 -9 -6 -6 16 5 34 5 8 11 62 13 120 2
58 5 117 6 131 2 14 0 37 -4 51 -4 15 -3 31 3 37 6 6 3 15 -8 27 -13 13 -14
19 -4 25 18 11 20 88 3 95 -12 4 -12 8 -1 24 9 13 13 59 12 169 -1 140 0 152
17 157 11 4 19 11 19 17 0 6 10 25 23 42 12 17 29 45 37 61 8 17 20 35 25 42
6 7 16 19 23 27 6 8 12 20 12 25 0 6 6 14 13 18 16 11 47 67 47 87 0 9 6 16
13 16 13 1 47 66 47 91 0 8 8 31 18 51 10 19 17 43 16 52 -1 9 1 16 5 16 12 0
32 50 25 61 -3 6 1 16 9 22 29 23 70 174 71 261 1 45 5 87 9 94 5 6 6 16 2 21
-3 5 -1 12 5 16 8 5 9 57 1 128 -1 4 -7 7 -15 7 -9 0 -13 -9 -12 -25 2 -13 -1
-22 -5 -19 -5 3 -9 -6 -9 -20 0 -13 -5 -37 -11 -53 -6 -15 -12 -46 -14 -68 -4
-44 -33 -115 -47 -115 -4 0 -8 -5 -8 -11 0 -6 -9 -24 -21 -41 -12 -16 -19 -32
-15 -35 3 -3 -1 -11 -8 -17 -21 -16 -87 -146 -81 -157 4 -5 -1 -9 -10 -9 -9 0
-14 -4 -10 -9 3 -6 -1 -13 -8 -18 -8 -4 -30 -33 -49 -63 -19 -30 -45 -66 -56
-78 -12 -13 -22 -28 -24 -32 -8 -22 -41 -13 -57 15 -42 77 -149 195 -178 195
-7 0 -13 5 -13 10 0 6 -6 10 -13 10 -7 0 -25 12 -41 26 -34 32 -114 74 -141
74 -11 0 -31 12 -44 25 -13 14 -30 25 -38 25 -8 0 -21 7 -30 15 -8 8 -19 13
-24 10 -5 -3 -19 0 -31 7 -13 6 -27 13 -33 15 -5 1 -28 9 -50 17 -22 8 -48 15
-57 16 -10 0 -18 4 -18 9 0 6 -18 13 -40 18 l-40 8 15 28 c8 15 12 34 8 42 -3
9 1 15 10 15 9 0 19 10 23 22 4 13 13 28 21 33 8 6 15 20 16 33 0 12 5 22 9
22 4 0 8 5 8 12 0 6 9 31 21 55 12 24 22 58 23 76 0 18 6 37 12 44 15 15 69
224 88 341 20 114 22 345 4 359 -21 16 -184 15 -222 -1 -32 -13 -33 -15 -29
-62 2 -27 7 -56 10 -64 3 -8 5 -19 4 -24 -1 -5 -4 -48 -7 -95 -5 -86 -12 -166
-14 -166 -1 0 -3 -15 -6 -34 -2 -19 -9 -40 -15 -47 -7 -8 -6 -14 2 -19 8 -6 7
-10 -5 -17 -9 -5 -16 -17 -16 -28 0 -10 -12 -42 -26 -72 -15 -29 -30 -62 -34
-73 -5 -11 -18 -41 -29 -66 -12 -25 -21 -50 -21 -56 0 -5 -9 -18 -20 -28 -11
-10 -20 -24 -20 -31 0 -7 -4 -14 -9 -16 -5 -1 -18 -25 -29 -53 l-20 -50 -48 3
c-27 2 -74 10 -104 17 -48 12 -144 28 -175 30 -5 0 -15 4 -21 7 -5 4 -34 10
-62 14 -29 3 -52 10 -52 15 0 5 4 9 9 9 5 0 14 12 20 28 7 15 18 38 26 52 8
14 15 36 15 50 0 15 9 31 21 38 15 10 19 20 15 37 -4 17 -1 24 14 28 11 3 20
9 18 14 -1 4 6 22 15 40 9 18 18 45 19 60 1 15 7 35 14 43 9 12 22 57 29 105
2 18 18 49 36 73 11 15 16 35 14 60 -2 20 1 42 6 48 5 6 11 32 14 58 2 25 9
55 15 65 5 11 12 48 15 83 2 35 9 88 15 118 5 30 11 75 11 100 0 25 3 115 5
200 5 197 5 179 -2 220 -7 36 -58 100 -81 100 -7 0 -13 6 -13 13 0 12 -55 47
-88 55 -10 3 -41 7 -71 9 -46 4 -53 3 -48 -10z m-1498 -507 c4 -11 18 -23 31
-26 16 -4 23 -12 20 -20 -5 -12 24 -47 127 -151 18 -18 31 -40 29 -49 -2 -8 8
-24 23 -35 14 -12 22 -25 19 -31 -4 -6 -1 -16 7 -22 30 -23 83 -150 84 -201 1
-27 7 -75 13 -105 16 -73 21 -114 32 -245 6 -60 12 -121 15 -135 3 -14 7 -55
10 -92 l5 -68 -43 0 c-23 0 -52 -3 -64 -6 -17 -5 -23 -2 -23 10 0 9 -5 16 -11
16 -5 0 -8 4 -4 10 3 5 1 17 -4 27 -18 34 -41 91 -41 101 0 6 -5 12 -12 14 -6
2 -12 13 -13 24 -3 34 -28 104 -37 104 -4 0 -8 9 -8 20 0 11 -7 20 -16 20 -11
0 -14 6 -9 20 4 12 2 26 -3 33 -12 16 -67 160 -64 170 1 4 -5 21 -13 38 -9 16
-13 34 -10 39 3 6 2 10 -3 10 -5 0 -12 13 -15 29 -3 15 -17 52 -30 82 -14 29
-22 59 -19 67 2 8 0 17 -7 21 -6 4 -13 29 -16 55 -2 26 -8 53 -13 59 -9 11
-13 33 -28 142 -9 66 -13 90 -14 90 -1 0 -4 26 -6 58 l-5 59 55 -56 c30 -31
58 -65 61 -76z m1514 59 c-6 -12 -13 -49 -15 -83 -2 -33 -11 -87 -19 -119 -12
-43 -13 -62 -5 -72 8 -9 8 -14 -1 -17 -6 -2 -13 -15 -15 -28 -1 -14 -10 -57
-18 -97 -9 -39 -18 -86 -21 -105 -2 -18 -8 -47 -14 -65 -5 -17 -7 -34 -4 -37
3 -3 0 -12 -6 -20 -7 -8 -10 -20 -6 -26 3 -5 -1 -17 -9 -26 -9 -8 -16 -24 -16
-34 0 -18 -6 -37 -36 -107 -8 -17 -14 -36 -14 -43 0 -7 -6 -26 -14 -43 -23
-54 -46 -117 -44 -125 1 -4 -4 -20 -10 -35 -7 -16 -12 -35 -12 -43 0 -7 -8
-32 -17 -55 l-18 -41 -95 7 c-52 3 -98 11 -101 16 -3 6 -2 29 2 52 10 49 27
155 35 212 3 22 10 55 15 72 6 18 8 37 4 43 -3 5 1 22 9 38 8 16 12 33 8 36
-3 4 -2 10 3 14 13 9 76 142 80 167 1 6 13 35 27 65 14 30 31 71 37 92 7 20
19 39 27 42 8 3 14 14 12 24 -1 10 11 36 27 58 39 51 55 80 55 99 0 9 4 14 9
10 5 -3 18 8 27 25 10 16 22 30 26 30 5 0 13 11 18 24 7 20 87 113 98 115 1 1
-2 -9 -9 -20z m1419 -3195 c2 -1 -4 -14 -13 -28 -9 -14 -14 -30 -10 -36 3 -5
-1 -10 -9 -10 -10 0 -16 -9 -16 -23 0 -13 -9 -32 -20 -42 -11 -10 -20 -24 -20
-31 0 -20 -39 -4 -47 20 -4 11 -7 23 -8 26 0 3 -3 10 -7 15 -10 18 -3 60 10
60 8 0 19 8 26 18 7 9 17 17 22 17 5 0 20 9 34 20 19 14 28 16 40 7 8 -6 16
-12 18 -13z m0 -483 c44 -24 93 -42 100 -37 5 3 15 -4 22 -15 9 -12 26 -19 46
-19 20 0 34 -6 38 -16 3 -9 12 -14 19 -11 6 2 28 -1 47 -8 55 -19 102 -33 138
-40 18 -4 31 -9 29 -12 -6 -5 7 -30 47 -92 16 -25 35 -59 42 -77 14 -34 51
-76 81 -93 10 -5 14 -13 10 -17 -4 -5 -17 -3 -28 4 -11 7 -24 10 -29 7 -5 -3
-18 -1 -29 5 -14 7 -22 7 -27 -1 -4 -8 -9 -7 -15 2 -4 8 -16 15 -26 16 -10 1
-34 3 -53 5 -19 2 -39 6 -45 9 -10 6 -124 3 -215 -5 -36 -3 -49 0 -66 18 -39
40 -86 76 -99 76 -7 0 -15 7 -19 15 -3 8 -17 15 -30 15 -19 0 -24 4 -19 15 3
9 -2 21 -11 28 -14 10 -18 33 -21 115 l-3 102 28 0 c16 0 32 5 35 10 8 12 30
13 53 1z m-84 -538 c-21 -15 -19 -17 -28 26 l-6 35 25 -24 c24 -23 25 -25 9
-37z m-1784 -1143 c0 -5 -4 -10 -10 -10 -5 0 -10 5 -10 10 0 6 5 10 10 10 6 0
10 -4 10 -10z"/>
</g>
</svg>
